<svg width="117" height="40" viewBox="0 0 117 40" fill="none" xmlns="http://www.w3.org/2000/svg">
<g clip-path="url(#clip0_885_13902)">
<path d="M66.8464 24.4389C66.8464 27.7504 63.9242 29.3656 60.8003 29.3656H45.8594V10.6484H59.2934C64.0585 10.6484 66.1694 12.8355 66.2462 15.723C66.3025 16.5276 66.1246 17.3312 65.734 18.0369C65.3434 18.7425 64.7567 19.3198 64.0449 19.6991C64.8936 20.1652 65.6014 20.8508 66.0942 21.6842C66.5871 22.5176 66.8469 23.4682 66.8464 24.4364V24.4389ZM49.8856 18.1749H60.6245C61.6419 18.1749 62.1531 17.3834 62.1531 16.0479C62.1391 15.5414 61.9341 15.059 61.5792 14.6975C61.2242 14.3359 60.7457 14.1219 60.2396 14.0985H49.8819V18.173L49.8856 18.1749ZM62.754 23.8108C62.754 22.8299 61.9687 21.6237 60.9154 21.6237H49.8856V25.9136H60.9148C62.254 25.913 62.754 24.757 62.754 23.8108Z" fill="white"/>
<path d="M89.3042 27.395C86.9154 29.5801 83.0928 29.582 80.3012 29.582H80.2708C76.8189 29.6421 73.3842 29.0827 70.1298 27.9303V24.0817C73.328 25.1475 76.6653 25.7386 80.0351 25.8361C81.1729 25.8572 82.3111 25.8188 83.4449 25.721C84.4017 25.6282 86.663 25.1912 86.1902 23.7475C86.0107 23.2078 85.1511 22.9943 84.643 22.8897C84.5465 22.8693 74.5019 20.678 74.4939 20.6761C72.3768 20.1192 70.389 19.4254 69.7708 17.2217C69.5428 16.3945 69.5536 15.5196 69.802 14.6982C70.0504 13.8769 70.5262 13.1426 71.1744 12.5803C73.9697 10.1817 80.4491 10.4143 80.4491 10.4143C83.4049 10.4022 86.3496 10.7766 89.2083 11.5283V15.1554C86.302 14.5872 83.3558 14.247 80.3965 14.138C79.592 14.138 74.1591 13.8521 74.208 15.7915C74.2179 16.239 74.877 16.7904 76.3529 17.1289C76.4538 17.1511 85.3058 19.0523 86.1153 19.2596C88.9997 19.9985 90.2059 21.1427 90.6614 22.7338C90.8774 23.5608 90.8649 24.431 90.6251 25.2515C90.3853 26.072 89.9273 26.812 89.2999 27.3925L89.3042 27.395Z" fill="white"/>
<path d="M116.626 10.6406L108.119 26.7493C106.816 29.2148 105.013 29.583 104.057 29.583C103.101 29.583 101.296 29.2117 99.9948 26.7493L91.4844 10.6406H96.002C96.002 10.6406 104.02 25.545 104.064 25.5549C104.087 25.545 112.104 10.6406 112.104 10.6406H116.626Z" fill="white"/>
<path d="M46.1794 39.8867C46.1221 39.8928 46.0646 39.8769 46.0186 39.8421C45.9837 39.7969 45.9677 39.7398 45.974 39.6831V34.9544C45.974 34.8393 46.0284 34.7812 46.1392 34.7812H47.8633C48.0509 34.7658 48.2396 34.7876 48.4186 34.8453C48.5977 34.9031 48.7636 34.9957 48.9067 35.1178C49.0257 35.2511 49.1168 35.407 49.1746 35.5761C49.2325 35.7452 49.2558 35.9241 49.2434 36.1024C49.2563 36.3702 49.186 36.6354 49.0423 36.8617C48.9218 37.0444 48.7394 37.1774 48.5286 37.2361C48.6641 37.2641 48.7926 37.3188 48.9068 37.397C49.0209 37.4752 49.1183 37.5754 49.1933 37.6916C49.3371 37.9273 49.4111 38.199 49.4068 38.4751C49.4263 38.6718 49.4039 38.8704 49.3411 39.0578C49.2782 39.2452 49.1764 39.4172 49.0423 39.5624C48.726 39.8014 48.3335 39.9167 47.9382 39.8867H46.1844H46.1794ZM46.7537 36.9725H47.8794C47.9632 36.9752 48.0465 36.9584 48.1227 36.9235C48.199 36.8887 48.2661 36.8366 48.3188 36.7714C48.4376 36.6177 48.5001 36.4278 48.4958 36.2336C48.5145 36.0317 48.4578 35.83 48.3368 35.6673C48.2768 35.6006 48.2025 35.5482 48.1195 35.514C48.0364 35.4798 47.9468 35.4648 47.8572 35.4699H46.7575V36.9725H46.7537ZM46.7537 39.2059H47.9116C48.0205 39.2174 48.1306 39.2012 48.2316 39.1589C48.3326 39.1166 48.4213 39.0496 48.4896 38.964C48.6085 38.7801 48.6676 38.5639 48.6586 38.3451C48.6673 38.1409 48.5965 37.9413 48.4612 37.7881C48.3899 37.7154 48.304 37.6588 48.2091 37.622C48.1143 37.5852 48.0126 37.569 47.911 37.5746H46.7537V39.2059Z" fill="white"/>
<path d="M54.2843 34.7795C54.3012 34.7769 54.3184 34.7783 54.3347 34.7835C54.3509 34.7888 54.3656 34.7979 54.3777 34.8099C54.3898 34.822 54.3988 34.8368 54.4041 34.853C54.4094 34.8692 54.4108 34.8864 54.4081 34.9033V38.682C54.3976 38.7527 54.4037 38.8249 54.4259 38.8929C54.448 38.9608 54.4857 39.0227 54.5358 39.0737C54.586 39.1246 54.6473 39.1632 54.7149 39.1864C54.7825 39.2096 54.8546 39.2168 54.9255 39.2074H56.4862C56.5031 39.2048 56.5203 39.2061 56.5365 39.2114C56.5528 39.2167 56.5675 39.2257 56.5796 39.2378C56.5916 39.2499 56.6007 39.2646 56.606 39.2809C56.6112 39.2971 56.6126 39.3143 56.61 39.3312V39.7644C56.6126 39.7812 56.6112 39.7985 56.606 39.8147C56.6007 39.8309 56.5916 39.8457 56.5796 39.8577C56.5675 39.8698 56.5528 39.8788 56.5365 39.8841C56.5203 39.8894 56.5031 39.8908 56.4862 39.8881H54.7782C54.6178 39.8908 54.4579 39.8712 54.3029 39.83C54.1707 39.7969 54.0475 39.735 53.9421 39.6486C53.8397 39.5614 53.7607 39.45 53.7125 39.3244C53.6539 39.168 53.6259 39.0018 53.6302 38.8349V34.9014C53.6276 34.8846 53.629 34.8673 53.6342 34.8511C53.6395 34.8349 53.6486 34.8202 53.6606 34.8081C53.6727 34.796 53.6874 34.787 53.7037 34.7817C53.7199 34.7764 53.7371 34.775 53.754 34.7777H54.2874L54.2843 34.7795Z" fill="white"/>
<path d="M62.3964 39.9195C62.1007 39.9244 61.8056 39.8913 61.5183 39.8211C61.2764 39.76 61.057 39.6312 60.8858 39.4498C60.6978 39.2258 60.5666 38.9598 60.5034 38.6744C60.4089 38.2479 60.3663 37.8115 60.3765 37.3748V37.2844C60.3663 36.8477 60.4089 36.4113 60.5034 35.9848C60.5635 35.7007 60.6951 35.4366 60.8858 35.2175C61.0547 35.0326 61.2749 34.9023 61.5183 34.8431C61.8061 34.7762 62.101 34.7444 62.3964 34.7484H62.4465C62.742 34.7444 63.0369 34.7762 63.3247 34.8431C63.5687 34.9006 63.7893 35.0313 63.9572 35.2175C64.1459 35.4378 64.2773 35.7014 64.3396 35.9848C64.4341 36.4113 64.4767 36.8477 64.4665 37.2844V37.3748C64.4767 37.8115 64.4341 38.2479 64.3396 38.6744C64.278 38.9604 64.1467 39.2268 63.9572 39.4498C63.7871 39.6326 63.5672 39.7617 63.3247 39.8211C63.0374 39.8912 62.7423 39.9242 62.4465 39.9195H62.3964ZM62.4465 39.2307C62.6374 39.2349 62.828 39.2126 63.0128 39.1645C63.1645 39.1211 63.2994 39.0326 63.3996 38.9108C63.5127 38.7436 63.5871 38.5534 63.6174 38.3538C63.6704 38.0311 63.6941 37.7042 63.688 37.3773V37.2869C63.6941 36.9599 63.6705 36.6331 63.6174 36.3104C63.5889 36.1126 63.5143 35.9244 63.3996 35.7608C63.3026 35.6346 63.1666 35.5439 63.0128 35.5028C62.8274 35.4583 62.6371 35.4375 62.4465 35.4409H62.3964C62.2089 35.4375 62.0217 35.4583 61.8395 35.5028C61.6846 35.5415 61.5479 35.6327 61.4527 35.7608C61.3381 35.9248 61.2624 36.1128 61.2311 36.3104C61.1745 36.6327 61.1496 36.9597 61.1569 37.2869V37.3773C61.1495 37.7044 61.1744 38.0315 61.2311 38.3538C61.263 38.5535 61.3387 38.7437 61.4527 38.9108C61.55 39.0358 61.686 39.125 61.8395 39.1645C62.0215 39.2105 62.2087 39.2328 62.3964 39.2307H62.4465Z" fill="white"/>
<path d="M68.6133 35.8709C68.6046 35.725 68.6247 35.5788 68.6728 35.4407C68.7208 35.3026 68.7956 35.1754 68.893 35.0664C68.999 34.9661 69.1246 34.8888 69.2619 34.8393C69.3991 34.7898 69.5451 34.7691 69.6907 34.7786H71.0702C71.354 34.7639 71.6336 34.8517 71.8579 35.0262C71.9616 35.1237 72.042 35.2434 72.0932 35.3762C72.1444 35.509 72.1651 35.6516 72.1537 35.7935V35.9489C72.1564 35.9657 72.155 35.983 72.1497 35.9992C72.1445 36.0154 72.1354 36.0302 72.1233 36.0422C72.1113 36.0543 72.0965 36.0633 72.0803 36.0686C72.0641 36.0739 72.0468 36.0753 72.03 36.0726H71.4965C71.4854 36.0741 71.4741 36.0729 71.4634 36.0693C71.4528 36.0656 71.4432 36.0596 71.4352 36.0517C71.4273 36.0437 71.4213 36.0341 71.4176 36.0234C71.414 36.0128 71.4128 36.0015 71.4142 35.9903V35.9099C71.4195 35.8464 71.4092 35.7826 71.3843 35.7239C71.3594 35.6653 71.3206 35.6135 71.2713 35.5732C71.1612 35.4984 71.0299 35.4611 70.8969 35.4668H69.9123C69.7759 35.4599 69.6416 35.502 69.5336 35.5856C69.4836 35.6352 69.4452 35.6951 69.4212 35.7613C69.3971 35.8274 69.3879 35.898 69.3943 35.9681V38.6947C69.3885 38.7654 69.3979 38.8365 69.4219 38.9032C69.4459 38.97 69.484 39.0308 69.5336 39.0815C69.6399 39.1687 69.775 39.2128 69.9123 39.2053H70.8969C71.0306 39.2114 71.1625 39.1724 71.2713 39.0945C71.3203 39.0531 71.3588 39.0007 71.3837 38.9415C71.4085 38.8823 71.419 38.8181 71.4142 38.7541V38.6718C71.4128 38.6607 71.414 38.6494 71.4176 38.6387C71.4213 38.6281 71.4273 38.6184 71.4352 38.6105C71.4432 38.6025 71.4528 38.5965 71.4634 38.5929C71.4741 38.5892 71.4854 38.5881 71.4965 38.5895H72.03C72.0468 38.5869 72.0641 38.5882 72.0803 38.5935C72.0965 38.5988 72.1113 38.6079 72.1233 38.6199C72.1354 38.632 72.1445 38.6467 72.1497 38.663C72.155 38.6792 72.1564 38.6964 72.1537 38.7133V38.8785C72.1645 39.0195 72.1431 39.1612 72.0911 39.2927C72.0391 39.4243 71.9579 39.5423 71.8536 39.6378C71.6306 39.8116 71.3525 39.8994 71.0702 39.8854H69.6907C69.5457 39.8944 69.4005 39.8731 69.2642 39.8228C69.1279 39.7725 69.0036 39.6943 68.8992 39.5933C68.8006 39.4849 68.7246 39.3579 68.6759 39.2198C68.6271 39.0816 68.6064 38.935 68.6152 38.7888V35.8666L68.6133 35.8709Z" fill="white"/>
<path d="M77.2198 39.7647C77.2224 39.7816 77.2211 39.7988 77.2158 39.8151C77.2105 39.8313 77.2014 39.846 77.1894 39.8581C77.1773 39.8702 77.1626 39.8792 77.1463 39.8845C77.1301 39.8898 77.1129 39.8911 77.096 39.8885H76.5626C76.5457 39.8911 76.5285 39.8898 76.5122 39.8845C76.496 39.8792 76.4813 39.8702 76.4692 39.8581C76.4572 39.846 76.4481 39.8313 76.4428 39.8151C76.4375 39.7988 76.4362 39.7816 76.4388 39.7647V34.9024C76.4362 34.8856 76.4375 34.8683 76.4428 34.8521C76.4481 34.8359 76.4572 34.8211 76.4692 34.8091C76.4813 34.797 76.496 34.788 76.5122 34.7827C76.5285 34.7774 76.5457 34.776 76.5626 34.7787H77.096C77.1129 34.776 77.1301 34.7774 77.1463 34.7827C77.1626 34.788 77.1773 34.797 77.1894 34.8091C77.2014 34.8211 77.2105 34.8359 77.2158 34.8521C77.2211 34.8683 77.2224 34.8856 77.2198 34.9024V37.0065H77.9346C77.9571 37.0071 77.9794 37.0021 77.9994 36.9919C78.0195 36.9818 78.0368 36.9668 78.0497 36.9483C78.078 36.9093 78.1028 36.8679 78.1239 36.8246L79.0182 34.895C79.0309 34.8598 79.0546 34.8295 79.0858 34.8088C79.117 34.7881 79.154 34.7779 79.1915 34.7799H79.7837C79.8604 34.7799 79.8825 34.8183 79.8499 34.895L78.7081 37.3339L79.8499 39.7728C79.8821 39.8495 79.86 39.8879 79.7837 39.8879H79.1915C79.1541 39.8896 79.1171 39.8794 79.0859 39.8587C79.0548 39.838 79.031 39.8079 79.0182 39.7728L78.1239 37.8432C78.1028 37.7999 78.078 37.7584 78.0497 37.7194C78.0368 37.701 78.0195 37.686 77.9994 37.6758C77.9794 37.6657 77.9571 37.6607 77.9346 37.6613H77.2198V39.7647Z" fill="white"/>
<path d="M83.7637 35.8709C83.7549 35.725 83.7751 35.5788 83.8231 35.4407C83.8712 35.3026 83.946 35.1754 84.0434 35.0664C84.1494 34.9661 84.275 34.8888 84.4123 34.8393C84.5495 34.7898 84.6955 34.7691 84.8411 34.7786H86.2205C86.5043 34.7639 86.784 34.8517 87.0083 35.0262C87.112 35.1237 87.1924 35.2434 87.2436 35.3762C87.2948 35.509 87.3155 35.6516 87.3041 35.7935V35.9489C87.3068 35.9657 87.3054 35.983 87.3001 35.9992C87.2948 36.0154 87.2858 36.0302 87.2737 36.0422C87.2617 36.0543 87.2469 36.0633 87.2307 36.0686C87.2145 36.0739 87.1972 36.0753 87.1804 36.0726H86.6469C86.6358 36.0741 86.6245 36.0729 86.6138 36.0693C86.6032 36.0656 86.5936 36.0596 86.5856 36.0517C86.5777 36.0437 86.5716 36.0341 86.568 36.0234C86.5644 36.0128 86.5632 36.0015 86.5646 35.9903V35.9099C86.5699 35.8464 86.5596 35.7826 86.5347 35.7239C86.5098 35.6653 86.471 35.6135 86.4217 35.5732C86.3116 35.4984 86.1803 35.4611 86.0473 35.4668H85.0627C84.9263 35.4599 84.792 35.502 84.6839 35.5856C84.634 35.6352 84.5956 35.6952 84.5716 35.7613C84.5475 35.8274 84.5383 35.898 84.5447 35.9681V38.6947C84.5388 38.7654 84.5482 38.8365 84.5723 38.9032C84.5963 38.97 84.6344 39.0308 84.6839 39.0815C84.7903 39.1687 84.9254 39.2128 85.0627 39.2053H86.0473C86.181 39.2114 86.3128 39.1724 86.4217 39.0945C86.4707 39.0531 86.5092 39.0006 86.534 38.9415C86.5588 38.8823 86.5693 38.8181 86.5646 38.7541V38.6718C86.5632 38.6607 86.5644 38.6494 86.568 38.6387C86.5716 38.6281 86.5777 38.6184 86.5856 38.6105C86.5936 38.6025 86.6032 38.5965 86.6138 38.5929C86.6245 38.5893 86.6358 38.5881 86.6469 38.5895H87.1804C87.1972 38.5869 87.2145 38.5882 87.2307 38.5935C87.2469 38.5988 87.2617 38.6079 87.2737 38.6199C87.2858 38.632 87.2948 38.6467 87.3001 38.663C87.3054 38.6792 87.3068 38.6964 87.3041 38.7133V38.8785C87.3149 39.0195 87.2935 39.1612 87.2415 39.2927C87.1895 39.4243 87.1083 39.5423 87.004 39.6378C86.781 39.8116 86.5029 39.8994 86.2205 39.8854H84.8411C84.6961 39.8944 84.5508 39.8731 84.4146 39.8228C84.2783 39.7725 84.154 39.6944 84.0496 39.5933C83.951 39.4849 83.875 39.3579 83.8262 39.2198C83.7775 39.0816 83.7568 38.935 83.7656 38.7888V35.8666L83.7637 35.8709Z" fill="white"/>
<path d="M92.2628 39.7647C92.2654 39.7816 92.264 39.7988 92.2588 39.8151C92.2535 39.8313 92.2444 39.846 92.2324 39.8581C92.2203 39.8702 92.2056 39.8792 92.1893 39.8845C92.1731 39.8898 92.1559 39.8911 92.139 39.8885H91.6056C91.5887 39.8911 91.5714 39.8898 91.5552 39.8845C91.539 39.8792 91.5243 39.8702 91.5122 39.8581C91.5001 39.846 91.4911 39.8313 91.4858 39.8151C91.4805 39.7988 91.4791 39.7816 91.4818 39.7647V34.9024C91.4791 34.8856 91.4805 34.8683 91.4858 34.8521C91.4911 34.8359 91.5001 34.8211 91.5122 34.8091C91.5243 34.797 91.539 34.788 91.5552 34.7827C91.5714 34.7774 91.5887 34.776 91.6056 34.7787H92.139C92.1559 34.776 92.1731 34.7774 92.1893 34.7827C92.2056 34.788 92.2203 34.797 92.2324 34.8091C92.2444 34.8211 92.2535 34.8359 92.2588 34.8521C92.264 34.8683 92.2654 34.8856 92.2628 34.9024V36.9811H94.4058V34.9024C94.4032 34.8856 94.4046 34.8683 94.4099 34.8521C94.4152 34.8359 94.4242 34.8211 94.4363 34.8091C94.4483 34.797 94.4631 34.788 94.4793 34.7827C94.4955 34.7774 94.5128 34.776 94.5296 34.7787H95.0711C95.088 34.776 95.1052 34.7774 95.1214 34.7827C95.1377 34.788 95.1524 34.797 95.1645 34.8091C95.1765 34.8211 95.1856 34.8359 95.1909 34.8521C95.1962 34.8683 95.1975 34.8856 95.1949 34.9024V39.7647C95.1975 39.7816 95.1962 39.7988 95.1909 39.8151C95.1856 39.8313 95.1765 39.846 95.1645 39.8581C95.1524 39.8702 95.1377 39.8792 95.1214 39.8845C95.1052 39.8898 95.088 39.8911 95.0711 39.8885H94.5296C94.5128 39.8911 94.4955 39.8898 94.4793 39.8845C94.4631 39.8792 94.4483 39.8702 94.4363 39.8581C94.4242 39.846 94.4152 39.8313 94.4099 39.8151C94.4046 39.7988 94.4032 39.7816 94.4058 39.7647V37.6606H92.2628V39.7647Z" fill="white"/>
<path d="M100.689 35.1501C100.71 35.0392 100.771 34.9398 100.86 34.8712C100.95 34.8027 101.062 34.7697 101.174 34.7788H101.725C101.838 34.77 101.951 34.8028 102.042 34.8711C102.133 34.9394 102.196 35.0386 102.22 35.1501L103.599 39.7643C103.628 39.8466 103.599 39.8881 103.509 39.8881H102.916C102.887 39.8883 102.858 39.8789 102.834 39.8611C102.81 39.8433 102.793 39.8182 102.785 39.7897L102.463 38.6862H100.444L100.124 39.7859C100.116 39.816 100.097 39.8424 100.072 39.8604C100.046 39.8784 100.015 39.8868 99.9844 39.8843H99.4002C99.3179 39.8843 99.2875 39.8441 99.3098 39.7606L100.689 35.1464V35.1501ZM100.641 38.0321H102.266L101.551 35.5691C101.529 35.5072 101.503 35.4787 101.469 35.4787H101.442C101.404 35.4787 101.374 35.5089 101.352 35.5691L100.637 38.0321H100.641Z" fill="white"/>
<path d="M107.708 34.9024C107.706 34.8856 107.707 34.8683 107.712 34.8521C107.718 34.8359 107.727 34.8211 107.739 34.8091C107.751 34.797 107.766 34.788 107.782 34.7827C107.798 34.7774 107.815 34.776 107.832 34.7787H108.366C108.382 34.776 108.4 34.7774 108.416 34.7827C108.432 34.788 108.447 34.797 108.459 34.8091C108.471 34.8211 108.48 34.8359 108.485 34.8521C108.491 34.8683 108.492 34.8856 108.489 34.9024V39.7647C108.492 39.7816 108.491 39.7988 108.485 39.8151C108.48 39.8313 108.471 39.846 108.459 39.8581C108.447 39.8702 108.432 39.8792 108.416 39.8845C108.4 39.8898 108.382 39.8911 108.366 39.8885H107.832C107.815 39.8911 107.798 39.8898 107.782 39.8845C107.766 39.8792 107.751 39.8702 107.739 39.8581C107.727 39.846 107.718 39.8313 107.712 39.8151C107.707 39.7988 107.706 39.7816 107.708 39.7647V34.9024Z" fill="white"/>
<path d="M116.704 39.7722C116.707 39.789 116.705 39.8063 116.7 39.8225C116.695 39.8387 116.686 39.8535 116.674 39.8655C116.661 39.8776 116.647 39.8866 116.631 39.8919C116.614 39.8972 116.597 39.8986 116.58 39.8959H116.047C116.03 39.8986 116.013 39.8972 115.996 39.8919C115.98 39.8866 115.965 39.8776 115.953 39.8655C115.941 39.8535 115.932 39.8387 115.927 39.8225C115.922 39.8063 115.92 39.789 115.923 39.7722V36.3964C115.928 36.2378 115.9 36.08 115.841 35.9328C115.791 35.8161 115.71 35.7151 115.607 35.6407C115.498 35.5664 115.375 35.5162 115.246 35.4934C115.093 35.4648 114.938 35.4513 114.782 35.4532H114.708C114.555 35.4524 114.403 35.4659 114.253 35.4934C114.124 35.5171 114.001 35.5673 113.892 35.6407C113.788 35.7151 113.706 35.8159 113.654 35.9328C113.593 36.0794 113.563 36.2374 113.568 36.3964V39.7722C113.57 39.789 113.569 39.8063 113.564 39.8225C113.558 39.8387 113.549 39.8535 113.537 39.8655C113.525 39.8776 113.51 39.8866 113.494 39.8919C113.478 39.8972 113.461 39.8986 113.444 39.8959H112.914C112.897 39.8986 112.88 39.8972 112.864 39.8919C112.848 39.8866 112.833 39.8776 112.821 39.8655C112.809 39.8535 112.8 39.8387 112.794 39.8225C112.789 39.8063 112.788 39.789 112.79 39.7722V36.3964C112.781 36.1219 112.827 35.8483 112.925 35.5918C113.007 35.3921 113.141 35.2177 113.312 35.0862C113.492 34.9537 113.7 34.8642 113.92 34.8245C114.181 34.7723 114.446 34.7474 114.712 34.7502H114.786C115.052 34.7474 115.317 34.7723 115.578 34.8245C115.797 34.8655 116.005 34.9549 116.186 35.0862C116.358 35.2173 116.491 35.3918 116.573 35.5918C116.671 35.8482 116.717 36.1218 116.708 36.3964V39.7722H116.704Z" fill="white"/>
<path d="M0 20.5032L17.3532 30.1573L18.1608 29.2791V20.58L25.6396 16.4912V35.2201L17.5085 39.9995L0 29.7055V20.5032Z" fill="white"/>
<path d="M25.5932 4.72306L8.29259 14.7713L8.61068 15.9273L16.8463 20.6306V28.3043L0 19.029V10.2414L17.5085 0L25.5932 4.72306Z" fill="white"/>
<path d="M26.8393 34.5131L26.9055 15.0632L25.9605 14.7748L17.5379 19.4218L9.95703 15.2223L26.799 5.42773L34.9765 10.2071V29.7275L26.8393 34.5131Z" fill="white"/>
<path d="M17.5085 39.9977L17.3532 30.158L0 20.5039V29.7062L17.5085 39.9977Z" fill="white"/>
<path d="M26.9061 15.0631L34.9765 10.207V29.7274L26.8398 34.513L26.9061 15.0631Z" fill="white"/>
<path d="M8.29259 14.7713L0 10.2438L17.5085 0L25.5932 4.72306L8.29259 14.7713Z" fill="white"/>
</g>
<defs>
<clipPath id="clip0_885_13902">
<rect width="116.706" height="40" fill="white"/>
</clipPath>
</defs>
</svg>
